<svg enable-background="new 0 0 116.9 100" viewBox="0 0 116.9 100" xmlns="http://www.w3.org/2000/svg"><path d="m0 0h116.9v100h-116.9z" fill="#fff"/><path d="m36.1 87.5c.2 0 .4.2.3.6l-1 .2c.2-.5.4-.8.7-.8m.5 1.5h-.2c-.2.3-.5.5-.8.5s-.4-.2-.4-.5c0-.1 0-.3 0-.4l1.5-.5c.3-.7-.1-1-.5-1-.7 0-1.6 1.2-1.6 2.3 0 .5.2.7.6.7.6 0 1-.4 1.4-1.1m-.3-2.2 1.1-1v-.1h-.6l-.7 1.1zm-3.3.7h.5l-.8 2.2c-.1.2 0 .4.2.4.5 0 1.2-.5 1.5-1.1h-.1c-.2.2-.6.5-.9.6l.7-2.1h.8l.1-.3h-.7l.3-.8h-.3l-.5.8-.8.1zm-.7-.1c.1-.2-.1-.3-.2-.3-.4 0-1 .4-1.2 1h.1c.1-.2.4-.4.6-.5l-.9 2.2c-.1.2.1.3.2.3.4 0 .9-.4 1.1-1-.1.2-.4.4-.6.5zm.1-1.1c.2 0 .4-.2.4-.4s-.2-.4-.4-.4-.4.2-.4.4.2.4.4.4m-4.9 3.4c-.1.3 0 .4.3.4.2 0 .2 0 .3-.2l.6-1.6c.3-.3.8-.7 1.1-.7.2 0 .1.1 0 .3l-.9 1.7c-.1.2 0 .4.2.4.4 0 1-.4 1.2-1h-.1c-.1.2-.4.4-.6.5l.8-1.6c.1-.2.2-.4.2-.5 0-.3-.1-.4-.4-.4-.4 0-.8.4-1.2 1v-.4c0-.3-.1-.6-.4-.6-.2 0-.3.1-.5.4v.1c.3 0 .4.4.2.9zm0-1.9c.1-.4.1-.7-.2-.7s-.4.3-.7 1v-.4c0-.3-.1-.6-.4-.6s-.6.5-.8 1h.1c.2-.2.3-.3.4-.3s.2.2 0 .7l-.6 1.3c-.1.3 0 .4.3.4.2 0 .2 0 .3-.2l.6-1.6c.2-.2.3-.4.5-.6zm-3.5-.3c.2 0 .4.2.3.6l-1 .2c.2-.5.5-.8.7-.8m.6 1.5h-.2c-.2.3-.5.5-.8.5s-.4-.2-.4-.5c0-.1 0-.3 0-.4l1.5-.5c.3-.7-.1-1-.5-1-.7 0-1.6 1.2-1.6 2.3 0 .5.2.7.6.7.6 0 1-.4 1.4-1.1m-3.7-1.5h.5l-.8 2.2c-.1.2 0 .4.2.4.5 0 1.2-.5 1.5-1.1h-.1c-.2.2-.6.5-.9.6l.7-2.1h.8l.1-.3h-.7l.3-.8h-.3l-.5.8-.6.1v.2zm-2.8 1.7c0-.7.8-1.6 1.2-1.6h.3l-.4 1.2c-.3.3-.7.7-.8.7-.2 0-.3-.1-.3-.3m2.4-2.3h-.2l-.3.3h-.1c-1.3 0-2.4 1.4-2.4 2.5 0 .3.2.5.5.5s.7-.5 1-1v.2c0 .5.1.8.4.8s.6-.5.8-1h-.2c-.2.2-.3.3-.4.3s-.2-.2 0-.7zm-2.8.9c.1-.4.1-.7-.2-.7s-.4.3-.7 1v-.4c0-.3-.1-.6-.4-.6s-.6.5-.8 1h.1c.2-.2.3-.3.4-.3s.2.2 0 .7l-.6 1.3c-.1.3 0 .4.3.4.2 0 .2 0 .3-.2l.6-1.6c.2-.2.3-.4.5-.6zm-4.2 2.2.1-.2c-.7-.1-.8-.1-.5-1l.3-.8h.8c.4 0 .4.2.3.6h.2l.5-1.3h-.2c-.2.3-.3.6-.7.6h-.8l.4-1.2c.1-.4.2-.5.7-.5h.4c.5 0 .6.1.6.7h.2l.2-.9h-3.1l-.1.2c.6.1.7.2.4 1l-.7 1.8c-.3.8-.4.8-1.1 1h-.1zm15.1-9.5c.2 0 .4.2.3.6l-1 .2c.2-.5.5-.8.7-.8m.5 1.5h-.2c-.2.3-.5.5-.8.5s-.4-.2-.4-.5c0-.1 0-.3 0-.4l1.5-.5c.3-.7-.1-1-.5-1-.7 0-1.6 1.2-1.6 2.3 0 .5.2.7.6.7.6 0 1.1-.4 1.4-1.1m-.3-2.2 1.1-1v-.1h-.6l-.7 1.1zm-3.3.7h.5l-.8 2.2c-.1.2 0 .4.2.4.5 0 1.2-.5 1.5-1.1h-.1c-.2.2-.6.5-.9.6l.7-2.1h.8l.1-.3h-.7l.3-.8h-.3l-.5.8-.6.1v.2zm-.7-.1c.1-.2-.1-.3-.2-.3-.4 0-1 .4-1.2 1h.1c.1-.2.4-.4.6-.5l-.9 2.2c-.1.2.1.3.2.3.4 0 .9-.4 1.1-1h-.1c-.1.2-.4.4-.6.5zm.1-1.1c.2 0 .4-.2.4-.4s-.2-.4-.4-.4-.4.2-.4.4c.1.2.2.4.4.4m-2.9 3.3 1.6-4.1v-.1l-1 .1v.1l.2.1c.2.1.1.3 0 .7l-1.2 3.2c-.1.2 0 .4.2.4.4 0 .9-.4 1.1-1h-.1c-.3.4-.6.6-.8.6m-3-.3c0-.7.8-1.6 1.2-1.6h.3l-.5 1.2c-.3.3-.7.7-.8.7-.1-.1-.2-.1-.2-.3m2.3-2.3h-.2l-.3.3h-.1c-1.3 0-2.4 1.4-2.4 2.5 0 .3.2.5.5.5s.7-.5 1-1v.2c0 .5.1.8.4.8s.6-.5.8-1h-.1c-.2.2-.3.3-.4.3s-.2-.2 0-.7zm-5.6 3.7c0-.3.3-.5.7-.6.1.1.3.1.6.2.4.1.6.2.6.3 0 .3-.5.5-1.1.5s-.8-.2-.8-.4m1.1-1.8c-.2 0-.3-.2-.3-.3 0-.5.3-1.2.7-1.2.2 0 .3.2.3.3 0 .4-.3 1.2-.7 1.2m1.2 1.5c0-.4-.3-.5-.8-.6-.4-.1-.6-.2-.6-.3s.1-.3.3-.4c.7 0 1.2-.7 1.2-1.3 0-.1 0-.2-.1-.3h.6l.1-.3h-1c-.1-.1-.3-.1-.4-.1-.8 0-1.3.7-1.3 1.2 0 .4.3.7.6.7-.4.2-.6.4-.6.6 0 .1 0 .2.2.3-.8.2-1.2.5-1.2.9s.5.5 1.1.5c1.1.1 1.9-.4 1.9-.9m-3.9-2.4c.4 0 .4.2.3.6h.2l.5-1.3h-.2c-.2.3-.3.6-.7.6h-.8l.4-1.1c.1-.4.2-.4.7-.4h.4c.5 0 .6.1.6.7h.2l.2-.9h-3.1l-.1.2c.6.1.7.2.4 1l-.7 1.8c-.3.8-.4.8-1.1 1v-.2h3.4l.6-1h-.2c-.4.4-.9.7-1.6.7-.9 0-.8 0-.5-.9l.3-.9h.8zm.5-2.3 1.1-.7v-.1h-.7l-.6.9h.2zm13.6-5.2c.2 0 .4.2.3.6l-1 .2c.2-.5.5-.8.7-.8m.6 1.6h-.2c-.2.3-.5.5-.8.5s-.4-.2-.4-.5c0-.1 0-.3 0-.4l1.5-.5c.3-.7-.1-1-.5-1-.7 0-1.6 1.2-1.6 2.3 0 .5.2.7.6.7.6-.1 1-.5 1.4-1.1m-.4-2.3 1.1-1v-.1h-.6l-.7 1.1zm-3.2.7h.4l-.8 2.2c-.1.2 0 .4.2.4.5 0 1.2-.5 1.5-1.1h-.1c-.2.2-.6.5-.9.6l.7-2.1h.8l.1-.3h-.7l.3-.8h-.3l-.5.8-.5.1v.2zm-.4.3c.1-.4.1-.7-.2-.7s-.4.3-.7 1v-.4c0-.3-.1-.6-.4-.6s-.6.5-.8 1h.1c.2-.2.3-.3.4-.3s.2.2 0 .7l-.6 1.3c-.1.3 0 .4.3.4.2 0 .2 0 .3-.2l.6-1.6c.2-.2.3-.4.5-.6zm-3.4-.3c.2 0 .4.2.3.6l-1 .2c.2-.5.5-.8.7-.8m.5 1.6h-.2c-.2.3-.5.5-.8.5s-.4-.2-.4-.5c0-.1 0-.3 0-.4l1.5-.5c.3-.7-.1-1-.5-1-.7 0-1.6 1.2-1.6 2.3 0 .5.2.7.6.7.6-.1 1.1-.5 1.4-1.1m-3.8.6c-.2 0-.4-.1-.4-.3 0 0 .1-.2.2-.4l.3-.7c.3-.3.7-.7.9-.7.1 0 .2.1.2.3 0 .7-.5 1.8-1.2 1.8m1.8-2c0-.5-.2-.6-.5-.6-.4 0-.8.4-1.1.9l.9-2.5-.1-.1-1 .1v.1l.2.1c.2.1.1.3 0 .7l-1 2.6c-.1.2-.2.4-.2.5 0 .3.4.5.7.5.8.1 2.1-1.2 2.1-2.3m-3-.3c.1-.2-.1-.3-.2-.3-.4 0-1 .4-1.2 1h.1c.1-.2.4-.4.6-.5l-.9 2.2c-.1.2.1.3.2.3.4 0 .9-.4 1.1-1h-.1c-.1.2-.4.4-.6.5zm.1-1.1c.2 0 .4-.2.4-.4s-.2-.4-.4-.4-.4.2-.4.4c.1.2.2.4.4.4m-2.2-.4h-2l-.1.2c.6.1.7.2.4.9l-.7 1.8c-.3.8-.4.8-1.1.9v.3h3.1l.7-1.2h-.2c-.4.4-.8.9-1.5.9-.5 0-.6-.1-.3-.9l.7-1.8c.3-.8.4-.8 1.1-.9z"/><path d="m11.3 32.8v-7.4h1.9l1.8 3 1.8-3h1.9v7.4h-1.5v-5.3l-1.7 2.7h-1.1l-1.7-2.7v5.3z"/><path d="m20.7 32.8v-7.4h1.5v7.4z"/><path d="m24.3 32.8v-7.4h1.9l3.3 5.3v-5.3h1.5v7.4h-1.9l-3.3-5.3v5.3z"/><path d="m33.1 32.8v-7.4h1.5v7.4z"/><path d="m36 31.8 1.1-1c.2.3.5.5.8.7s.6.2.9.2.5-.1.7-.2c.2-.2.3-.4.3-.6 0-.3-.2-.6-.5-.8-.4-.2-.7-.4-1.2-.6-.4-.2-.8-.5-1.2-.8s-.5-.8-.5-1.4c0-.3.1-.6.2-.8.1-.3.3-.5.5-.7s.5-.3.7-.5c.3-.1.6-.2 1-.2.6 0 1 .1 1.5.3.4.2.8.5 1.1.9l-1.1 1c-.2-.3-.4-.5-.7-.7-.2-.2-.5-.2-.8-.2s-.5.1-.6.2c-.2.1-.2.3-.2.6s.2.6.5.8c.4.2.7.4 1.2.6.4.2.8.5 1.2.8s.5.8.5 1.4c0 .3-.1.7-.2.9-.1.3-.3.5-.5.7s-.5.3-.8.4-.6.2-1 .2c-.6 0-1.2-.1-1.6-.3-.6-.2-1-.5-1.3-.9z"/><path d="m42 26.8v-1.4h6v1.4h-2.3v6h-1.5v-6z"/><path d="m49.4 32.8v-7.4h4.3v1.3h-2.8v1.7h2.4v1.3h-2.4v1.9h2.8v1.3h-4.3zm1.5-8-1.4-1.4h1.5l1.2 1.4z"/><path d="m55.4 32.8v-7.4h2.3c.8 0 1.5.2 1.9.6.5.4.7.9.7 1.6 0 .4-.1.8-.3 1.2-.2.3-.5.6-.9.8l2.3 3.3h-1.8l-2-3h-.8v3h-1.4zm2.4-6.1h-.8v1.9h.8c.3 0 .6-.1.7-.2s.3-.4.3-.7-.1-.5-.3-.7-.4-.3-.7-.3z"/><path d="m62.4 32.8v-7.4h4.3v1.3h-2.8v1.7h2.4v1.3h-2.4v1.9h2.8v1.3h-4.3z"/><path d="m11.3 44v-7.4h2.9c.6 0 1.1.1 1.6.3s.9.5 1.2.8.6.7.8 1.2c.2.4.3.9.3 1.4s-.1 1-.3 1.4-.5.8-.8 1.2c-.3.3-.8.6-1.2.8-.5.2-1 .3-1.6.3zm2.9-6h-1.4v4.7h1.4c.3 0 .7-.1 1-.2s.5-.3.7-.5.4-.5.5-.7c.1-.3.2-.6.2-.9s-.1-.6-.2-.9-.3-.5-.5-.7-.5-.4-.7-.5c-.3-.3-.7-.3-1-.3z"/><path d="m19.6 44v-7.4h4.3v1.3h-2.8v1.7h2.4v1.3h-2.4v1.9h2.8v1.2z"/><path d="m28.4 44v-7.4h1.5v6h2.8v1.4z"/><path d="m33.6 39.7h-1.2l1-3h1.5z"/><path d="m36 44v-7.4h4.3v1.3h-2.8v1.7h2.4v1.3h-2.4v1.9h2.8v1.2zm2.8-8h-1.4l1.2-1.4h1.5z"/><path d="m45.2 42.8c.4 0 .8-.1 1.1-.3s.6-.4.8-.7l1.2.9c-.3.5-.8.8-1.3 1.1s-1.1.4-1.8.4c-.6 0-1.1-.1-1.6-.3s-.9-.5-1.2-.8c-.3-.4-.6-.8-.8-1.2-.2-.5-.3-1-.3-1.5s.1-1 .3-1.5.5-.9.8-1.2c.3-.4.8-.6 1.2-.8.5-.2 1-.3 1.6-.3.7 0 1.3.1 1.8.4s1 .6 1.3 1.1l-1.2.9c-.2-.3-.5-.5-.8-.7s-.7-.3-1.1-.3c-.3 0-.7.1-1 .2s-.5.3-.8.5c-.2.2-.4.5-.5.8s-.2.6-.2 1 .1.7.2 1 .3.6.5.8.5.4.8.5z"/><path d="m52.9 36.4c.6 0 1.1.1 1.6.3s.9.5 1.2.8c.3.4.6.8.8 1.2.2.5.3 1 .3 1.5s-.1 1-.3 1.5-.5.9-.8 1.2c-.3.4-.8.6-1.2.8s-1 .3-1.6.3-1.1-.1-1.6-.3-.9-.5-1.2-.8c-.3-.4-.6-.8-.8-1.2-.2-.5-.3-1-.3-1.5s.1-1 .3-1.5.5-.9.8-1.2c.3-.4.8-.6 1.2-.8.5-.2 1-.3 1.6-.3zm0 6.4c.3 0 .7-.1 1-.2s.5-.3.8-.5c.2-.2.4-.5.5-.8s.2-.6.2-1-.1-.7-.2-1-.3-.6-.5-.8-.5-.4-.8-.5-.6-.2-1-.2c-.3 0-.7.1-1 .2s-.5.3-.8.5c-.2.2-.4.5-.5.8s-.2.6-.2 1 .1.7.2 1 .3.6.5.8.5.4.8.5c.3.2.6.2 1 .2z"/><path d="m58.3 44v-7.4h1.9l3.3 5.3v-5.3h1.5v7.4h-1.9l-3.3-5.3v5.3z"/><path d="m70.4 36.4c.6 0 1.1.1 1.6.3s.9.5 1.2.8.6.8.8 1.2c.2.5.3 1 .3 1.5s-.1 1-.3 1.5-.5.9-.8 1.2c-.3.4-.8.6-1.2.8-.5.2-1 .3-1.6.3s-1.1-.1-1.6-.3-.9-.5-1.2-.8c-.3-.4-.6-.8-.8-1.2-.2-.5-.3-1-.3-1.5s.1-1 .3-1.5.5-.9.8-1.2c.3-.4.8-.6 1.2-.8.5-.2 1-.3 1.6-.3zm0 6.4c.3 0 .7-.1 1-.2s.5-.3.8-.5c.2-.2.4-.5.5-.8s.2-.6.2-1-.1-.7-.2-1-.3-.6-.5-.8-.5-.4-.8-.5-.6-.2-1-.2-.7.1-1 .2-.5.3-.8.5c-.2.2-.4.5-.5.8s-.1.7-.1 1c0 .4.1.7.2 1s.3.6.5.8.5.4.8.5c.2.2.5.2.9.2z"/><path d="m75.7 44v-7.4h1.9l1.8 3 1.8-3h1.9v7.4h-1.5v-5.3l-1.7 2.7h-1.1l-1.7-2.7v5.3z"/><path d="m85.2 44v-7.4h1.5v7.4z"/><path d="m88.7 44v-7.4h4.3v1.3h-2.8v1.7h2.4v1.3h-2.4v1.9h2.8v1.2z"/><path d="m95.3 45.7h-1.2l1-3.2h1.5z"/><path d="m11.3 55.2v-7.4h2.9c.6 0 1.1.1 1.6.3s.9.5 1.2.8.6.7.8 1.2c.2.4.3.9.3 1.4s-.1 1-.3 1.4-.5.8-.8 1.2c-.3.3-.8.6-1.2.8-.5.2-1 .3-1.6.3zm2.9-6h-1.4v4.7h1.4c.3 0 .7-.1 1-.2s.5-.3.7-.5.4-.5.5-.7c.1-.3.2-.6.2-.9s-.1-.6-.2-.9-.3-.5-.5-.7-.5-.4-.7-.5c-.3-.3-.7-.3-1-.3z"/><path d="m19.6 55.2v-7.4h4.3v1.3h-2.8v1.7h2.4v1.3h-2.4v1.9h2.8v1.3h-4.3z"/><path d="m25 54.2 1.1-1c.2.3.5.5.8.7s.6.2.9.2.5-.1.7-.2c.2-.2.3-.4.3-.6 0-.3-.2-.6-.5-.8-.4-.2-.7-.4-1.2-.6-.4-.2-.8-.5-1.2-.8s-.5-.8-.5-1.4c0-.3.1-.6.2-.8.1-.3.3-.5.5-.7s.5-.3.7-.5c.3-.1.6-.2 1-.2.6 0 1 .1 1.5.3.4.2.8.5 1.1.9l-1.1 1c-.2-.3-.4-.5-.7-.7-.2-.2-.5-.2-.8-.2s-.5.1-.6.2c-.2.1-.2.3-.2.6s.2.6.5.8c.4.2.7.4 1.2.6.4.2.8.5 1.2.8s.5.8.5 1.4c0 .3-.1.7-.2.9-.1.3-.3.5-.5.7s-.5.3-.8.4-.6.2-1 .2c-.6 0-1.2-.1-1.6-.3-.6-.2-1-.5-1.3-.9z"/><path d="m34.5 55.2v-7.4h4.3v1.3h-2.8v1.7h2.4v1.3h-2.4v3.1z"/><path d="m40.1 55.2v-7.4h1.5v7.4z"/><path d="m43.7 55.2v-7.4h1.9l3.3 5.3v-5.3h1.5v7.4h-1.9l-3.3-5.3v5.3z"/><path d="m51.6 55.2 2.8-7.4h2l2.8 7.4h-1.6l-.7-1.9h-3l-.7 1.9zm2.8-3.2h2l-1-2.8z"/><path d="m60.3 55.2v-7.4h1.9l3.3 5.3v-5.3h1.5v7.4h-1.9l-3.3-5.3v5.3z"/><path d="m72.4 54c.4 0 .8-.1 1.1-.3s.6-.4.8-.7l1.2.9c-.3.5-.8.8-1.3 1.1s-1.1.4-1.8.4c-.6 0-1.1-.1-1.6-.3s-.9-.5-1.2-.8c-.3-.4-.6-.8-.8-1.2-.2-.5-.3-1-.3-1.5s.1-1 .3-1.5.5-.9.8-1.2.8-.6 1.2-.8c.5-.2 1-.3 1.6-.3.7 0 1.3.1 1.8.4s1 .6 1.3 1.1l-1.1.7c-.2-.3-.5-.5-.8-.7s-.7-.3-1.1-.3c-.3 0-.7.1-1 .2s-.5.3-.8.5c-.2.2-.4.5-.5.8s-.2.6-.2 1 .1.7.2 1 .3.6.5.8.5.4.8.5c.3.2.6.2.9.2z"/><path d="m76.9 55.2v-7.4h4.3v1.3h-2.8v1.7h2.4v1.3h-2.4v1.9h2.8v1.3h-4.3z"/><path d="m82.3 54.2 1.1-1c.2.3.5.5.8.7s.6.2.9.2.5-.1.7-.2c.2-.2.3-.4.3-.6 0-.3-.2-.6-.5-.8-.4-.2-.7-.4-1.2-.6-.4-.2-.8-.5-1.2-.8s-.5-.8-.5-1.4c0-.3.1-.6.2-.8.1-.3.3-.5.5-.7s.5-.3.7-.5c.3-.1.6-.2 1-.2.6 0 1 .1 1.5.3.4.2.8.5 1.1.9l-1.1 1c-.2-.3-.4-.5-.7-.7-.2-.2-.5-.2-.8-.2s-.5.1-.6.2c-.2.1-.2.3-.2.6s.2.6.5.8c.4.2.7.4 1.2.6.4.2.8.5 1.2.8s.5.8.5 1.4c0 .3-.1.7-.2.9-.1.3-.3.5-.5.7s-.5.3-.8.4-.6.2-1 .2c-.6 0-1.2-.1-1.6-.3-.6-.2-1-.5-1.3-.9z"/><path d="m11.3 66.4v-7.4h4.3v1.3h-2.8v1.7h2.4v1.3h-2.4v1.9h2.8v1.3h-4.3z"/><path d="m16.7 60.4v-1.4h6.1v1.4h-2.3v6h-1.5v-6z"/><path d="m26.9 66.4v-7.4h2.9c.6 0 1.1.1 1.6.3s.9.5 1.2.8.6.7.8 1.2c.2.4.3.9.3 1.4s-.1 1-.3 1.4-.5.8-.8 1.2c-.3.3-.8.6-1.2.8-.5.2-1 .3-1.6.3zm2.9-6h-1.4v4.6h1.4c.3 0 .7-.1 1-.2s.5-.3.7-.5.4-.5.5-.7c.1-.3.2-.6.2-.9s-.1-.6-.2-.9-.3-.5-.5-.7-.5-.4-.7-.5c-.3-.2-.7-.2-1-.2z"/><path d="m35.2 66.4v-7.4h4.3v1.3h-2.8v1.7h2.4v1.3h-2.4v1.9h2.8v1.3h-4.3z"/><path d="m44 66.4v-7.4h1.5v6h2.8v1.4z"/><path d="m49 66.4 2.8-7.4h2l2.8 7.4h-1.6l-.7-1.9h-3l-.7 1.9zm2.8-3.2h2l-1-2.8z"/><path d="m60.5 66.4v-7.4h2.3c.8 0 1.5.2 1.9.6.5.4.7.9.7 1.6 0 .4-.1.8-.3 1.2-.2.3-.5.6-.9.8l2.3 3.3h-1.8l-2-3h-.7v3h-1.5zm2.3-6.1h-.8v1.9h.8c.3 0 .6-.1.7-.2.2-.2.3-.4.3-.7s-.1-.5-.3-.7c-.1-.2-.3-.3-.7-.3z"/><path d="m67.5 66.4v-7.4h4.3v1.3h-2.8v1.7h2.4v1.3h-2.4v1.9h2.8v1.3h-4.3z"/><path d="m73.5 66.4v-7.4h1.5v6h2.8v1.4z"/><path d="m78.6 66.4 2.8-7.4h2l2.8 7.4h-1.6l-.7-1.9h-3l-.7 1.9zm2.7-3.2h2l-1-2.8z"/><path d="m87.3 66.4v-7.4h1.9l3.3 5.3v-5.3h1.5v7.4h-1.9l-3.3-5.3v5.3z"/><path d="m99.4 65.2c.4 0 .8-.1 1.1-.3s.6-.4.8-.7l1.2.9c-.3.5-.8.8-1.3 1.1s-1.1.4-1.8.4c-.6 0-1.1-.1-1.6-.3s-.9-.5-1.2-.8c-.3-.4-.6-.8-.8-1.2-.2-.5-.3-1-.3-1.5s.1-1 .3-1.5.5-.9.8-1.2.8-.6 1.2-.8c.5-.2 1-.3 1.6-.3.7 0 1.3.1 1.8.4s1 .6 1.3 1.1l-1.2.9c-.2-.3-.5-.5-.8-.7s-.7-.3-1.1-.3c-.3 0-.7.1-1 .2s-.5.3-.8.5c-.2.2-.4.5-.5.8s-.2.6-.2 1 .1.7.2 1 .3.6.5.8.5.4.8.5z"/><path d="m103.8 66.4v-7.4h4.3v1.3h-2.8v1.7h2.4v1.3h-2.4v1.9h2.8v1.3h-4.3z"/><path d="m22.8 19.1c.1-.1.2-.2.3-.3.2-.2.4-.5.6-.7l.2-.2v-.1c-.1 0-.2.1-.2.2l.2-.2c-.3 0-.4.1-.6.3h-.1c-.3.1-.5.3-.8.5-.1 0-.2.1-.3.1-.2 0-.3 0-.5 0s-.5.1-.7.1c-.1 0-.2.1-.4.1s-.1.1-.1.1c-.1.1-.2.2-.3.2-.1.1-.2.2-.3.3 0 0 0 0-.1 0v-.1s0-.1.1-.1c0 0 .1-.1.1-.1.1-.1.2-.2.3-.2s0 0 0-.1-.1 0-.1.1c0 0-.1.1-.2.1s.1-.1.1-.1c.1 0 .1-.1.2-.1-.1 0-.2.1-.3.2s.1-.1.1-.1c.6-.5 1.5-.4 2.2-.6.1 0 .1-.1.2-.1s.2-.1.3-.2c.2-.1.3-.2.3-.4-.2.3-.5.5-.8.6-.4.2-.8.2-1.3.2h.1c0-.1 0-.1.1-.1h.1.1c-.1-.1-.2.1-.3 0 0 0 0-.1.1-.1h.1v-.1c.3-.2.6-.3.8-.5-.1 0-.1.1-.2 0v-.1c.2-.1.4-.2.6-.2-.1 0-.1.1-.2 0 0 0 .1-.1.1-.1v-.1s.1 0 .1-.1h-.1c.1-.1.2-.1.3-.1h-.1v-.1c.1-.1.1-.3.2-.5-.2.2-.5.3-.8.4h-.1c-.1 0-.2 0-.3 0s-.1-.1-.2-.2c-.2-.1-.3-.2-.5-.2-.5-.2-1-.2-1.5-.2.2-.1.4-.1.7-.2s.6-.2 1-.2c-.1 0-.1 0-.2 0-.3 0-.5.1-.8.1-.2 0-.4.1-.6.2-.1 0-.2.2-.3.1v-.1c.2-.2.4-.5.7-.5.3-.1.7 0 1 0 .2 0 .5.1.7.1.1 0 .1.2.2.2s.2 0 .3.1v-.1c.1-.1.2 0 .2 0 .2-.1-.1-.3-.2-.4.2.1.3.3.5.4.1 0 .3.1.3 0-.1-.2-.3-.4-.4-.6v-.1s0 0-.1 0v-.1c-.1 0-.1-.1-.1-.2-.1-.1 0-.2-.1-.3 0-.1-.1-.2-.1-.3-.1-.3-.1-.6-.2-.9 0-.4.2-.7.4-1 .1-.2.3-.5.5-.6.1-.2.2-.4.4-.6s.4-.3.6-.4c.3-.1.5-.2.5-.2h3.8.1c.1 0 .2.1.3.1.1.1.3.2.4.3 0 .1.1.2.1.2 0 .1-.1.2-.2.3s-.3.1-.4 0c-.1 0-.2 0-.2 0 .3.1.6.2.7.5 0 0 .1.1.2.1v.1s-.1.1-.1.1h.1c.1 0 .1-.2.2-.2.1.1.1.2.1.3-.1.1-.2.1-.2.2v.1c.1.1.1.2.1.2.1.1.1.3.1.4.1.3.2.6.1.9 0 .2-.1.3 0 .4 0 .2.1.3.2.4s.2.2.2.3c.1.2.3.4.2.6-.1.1-.3.1-.4.2s0 .2 0 .3c.1.2-.1.3-.3.3 0 .1.1 0 .1.1s.1.2.1.2c-.1.1-.3.2-.2.3s0 .3 0 .4c-.1.2-.2.2-.3.3-.1 0-.2 0-.4 0h-.1c-.3 0-.7-.1-1-.1-.1 0-.2 0-.3.1s-.2.1-.2.2c-.1.1-.1.1-.2.2.2.2.2.3.2.4-.1.4-.1.8 0 .9 0 0 .6.2 1.1.4.2.1.3.2.5.2h-7.9c.4-.3.7-.4 1.2-.6.2-.1.7-.4.9-.6m-2.9-1.3c-.1 0-.1 0 0 0-.1-.1.1-.1.1-.2 0 0 .1-.1.1 0s.1 0 .1.1-.2 0-.3.1m-3-.5c.2-.4.4-.7.6-1 .3-.1.5-.3.7-.5.3-.3.7-.7 1.1-.8.2-.1.3 0 .5 0-.1.1-.2.1-.2.1s0 0-.1 0c0 0 0 0 0-.1-.2.2-.5.3-.6.6-.1.2-.2.4-.4.5-.1 0 0-.1 0 0-.7.3-1.1.7-1.6 1.2m1.6-1.2c-.1.1-.1.1-.1.2 0-.2 0-.2.1-.2 0-.1 0 0 0 0m.9 2.8c0 .1 0 .1 0 0-.1.1-.1.2-.2.2s0 0-.1.1h-.1s.1-.1.1-.1.1 0 .1-.1c.1-.1.2-.1.2-.1m-.3-.1c-.1.1-.1.1-.2.1s-.2.1-.3.1c-.1 0-.1.1-.2.1s0 0-.1.1c0 0-.1.1-.1.1s0 0 .1-.1 0-.1.1-.1 0-.1.1-.1 0 0-.1.1.1-.1.1-.1h.1c.2-.2.5-.2.7-.3h.3.2c-.4-.1-.6 0-.7.1m.4-1.3c-.1-.1 0 0 0 0-.1-.1-.1-.1 0 0-.2-.1-.3 0-.4 0s-.2.1-.4.2-.4.2-.6.3c0-.1.1-.1.1-.1.2-.2.4-.3.6-.5v-.1c.1-.1.2-.1.2-.2s.1-.1.2-.2c0 0-.1 0-.1-.1-.1 0-.2 0-.2 0s.1-.1.1-.1 0-.1.1-.1.2 0 .2-.1c-.1 0-.3 0-.4 0 .1-.2.3-.5.5-.6h.1c0 .1-.1.2-.2.2.2 0 .3 0 .5.1h-.1c.1.1.2 0 .3.1-.1.1-.1 0-.2 0 .6.2 1.2.3 1.7.7-.4.2-.9.3-1.3.4-.1 0-.1 0-.2 0v.1c-.1 0-.1 0-.2 0-.2 0-.3 0-.3 0" fill="#fff"/><path d="m22.8 19.1c.1-.1.2-.2.3-.3.2-.2.4-.5.6-.7l.2-.2v-.1c-.1 0-.2.1-.2.2l.2-.2c-.3 0-.4.1-.6.3h-.1c-.3.1-.5.3-.8.5-.1 0-.2.1-.3.1-.2 0-.3 0-.5 0s-.5.1-.7.1c-.1 0-.2.1-.4.1s-.1.1-.1.1c-.1.1-.2.2-.3.2-.1.1-.2.2-.3.3 0 0 0 0-.1 0v-.1s0-.1.1-.1c0 0 .1-.1.1-.1.1-.1.2-.2.3-.2s0 0 0-.1-.1 0-.1.1c0 0-.1.1-.2.1s.1-.1.1-.1c.1 0 .1-.1.2-.1-.1 0-.2.1-.3.2s.1-.1.1-.1c.6-.5 1.5-.4 2.2-.6.1 0 .1-.1.2-.1s.2-.1.3-.2c.2-.1.3-.2.3-.4-.2.3-.5.5-.8.6-.4.2-.8.2-1.3.2h.1c0-.1 0-.1.1-.1h.1.1c-.1-.1-.2.1-.3 0 0 0 0-.1.1-.1h.1v-.1c.3-.2.6-.3.8-.5-.1 0-.1.1-.2 0v-.1c.2-.1.4-.2.6-.2-.1 0-.1.1-.2 0 0 0 .1-.1.1-.1v-.1s.1 0 .1-.1h-.1c.1-.1.2-.1.3-.1h-.1v-.1c.1-.1.1-.3.2-.5-.2.2-.5.3-.8.4h-.1c-.1 0-.2 0-.3 0s-.1-.1-.2-.2c-.2-.1-.3-.2-.5-.2-.5-.2-1-.2-1.5-.2.2-.1.4-.1.7-.2s.6-.2 1-.2c-.1 0-.1 0-.2 0-.3 0-.5.1-.8.1-.2 0-.4.1-.6.2-.1 0-.2.2-.3.1v-.1c.2-.2.4-.5.7-.5.3-.1.7 0 1 0 .2 0 .5.1.7.1.1 0 .1.2.2.2s.2 0 .3.1v-.1c.1-.1.2 0 .2 0 .2-.1-.1-.3-.2-.4.2.1.3.3.5.4.1 0 .3.1.3 0-.1-.2-.3-.4-.4-.6v-.1s0 0-.1 0v-.1c-.1 0-.1-.1-.1-.2-.1-.1 0-.2-.1-.3 0-.1-.1-.2-.1-.3-.1-.3-.1-.6-.2-.9 0-.4.2-.7.4-1 .1-.2.3-.5.5-.6.1-.2.2-.4.4-.6s.4-.3.6-.4c.3-.1.5-.2.5-.2h-12.9v10.2h9.3c.4-.3.7-.4 1.2-.6.3-.6.8-.9 1-1.1m-2.9-1.3c-.1 0-.1 0 0 0-.1-.1.1-.1.1-.2 0 0 .1-.1.1 0s.1 0 .1.1-.2 0-.3.1m-3-.5c.2-.4.4-.7.6-1 .3-.1.5-.3.7-.5.3-.3.7-.7 1.1-.8.2-.1.3 0 .5 0-.1.1-.2.1-.2.1s0 0-.1 0c0 0 0 0 0-.1-.2.2-.5.3-.6.6-.1.2-.2.4-.4.5-.1 0 0-.1 0 0-.7.3-1.1.7-1.6 1.2m1.6-1.2c-.1.1-.1.1-.1.2 0-.2 0-.2.1-.2 0-.1 0 0 0 0m.9 2.8c0 .1 0 .1 0 0-.1.1-.1.2-.2.2s0 0-.1.1h-.1s.1-.1.1-.1.1 0 .1-.1c.1-.1.2-.1.2-.1m-.3-.1c-.1.1-.1.1-.2.1s-.2.1-.3.1c-.1 0-.1.1-.2.1s0 0-.1.1c0 0-.1.1-.1.1s0 0 .1-.1 0-.1.1-.1 0-.1.1-.1 0 0-.1.1.1-.1.1-.1h.1c.2-.2.5-.2.7-.3h.3.2c-.4-.1-.6 0-.7.1m.4-1.3c-.1-.1 0 0 0 0-.1-.1-.1-.1 0 0-.2-.1-.3 0-.4 0s-.2.1-.4.2-.4.2-.6.3c0-.1.1-.1.1-.1.2-.2.4-.3.6-.5v-.1c.1-.1.2-.1.2-.2s.1-.1.2-.2c0 0-.1 0-.1-.1-.1 0-.2 0-.2 0s.1-.1.1-.1 0-.1.1-.1.2 0 .2-.1c-.1 0-.3 0-.4 0 .1-.2.3-.5.5-.6h.1c0 .1-.1.2-.2.2.2 0 .3 0 .5.1h-.1c.1.1.2 0 .3.1-.1.1-.1 0-.2 0 .6.2 1.2.3 1.7.7-.4.2-.9.3-1.3.4-.1 0-.1 0-.2 0v.1c-.1 0-.1 0-.2 0-.2 0-.3 0-.3 0" fill="#000091"/><path d="m39.2 10.2h-10.9.1c.1 0 .2.1.3.1.1.1.3.2.4.3 0 .1.1.2.1.2 0 .1-.1.2-.2.3s-.3.1-.4 0c-.1 0-.2 0-.2 0 .3.1.6.2.7.5 0 0 .1.1.2.1v.1s-.1.1-.1.1h.1c.1 0 .1-.2.2-.2.1.1.1.2.1.3-.1.1-.2.1-.2.2v.1c.1.1.1.2.1.2.1.1.1.3.1.4.1.3.2.6.1.9 0 .2-.1.3 0 .4 0 .2.1.3.2.4s.2.2.2.3c.1.2.3.4.2.6-.1.1-.3.1-.4.2s0 .2 0 .3c.1.2-.1.3-.3.3 0 .1.1 0 .1.1s.1.2.1.2c-.1.1-.3.2-.2.3s0 .3 0 .4c-.1.2-.2.2-.3.3-.1 0-.2 0-.4 0h-.1c-.3 0-.7-.1-1-.1-.1 0-.2 0-.3.1s-.2.1-.2.2c-.1.1-.1.1-.2.2-.1.6-.1.7-.1.8-.1.4-.1.8 0 .9 0 0 .6.2 1.1.4.2.1.3.2.5.2h10.7v-10.1z" fill="#e1000f"/><path d="m28.9 13.9c.1 0 .2 0 .2.1 0 .2-.3.2-.4.3h-.1c-.1 0 0 .1-.1.1s-.1 0-.2 0c.1.1.2.1.3.1 0 0 .1 0 .1.1v.1c-.1.1-.2 0-.2.1h.4c.1 0 0-.2.1-.3v-.1s.1-.1.1-.1.1 0 .1-.1c0 0-.1-.1-.1-.1.1-.1.2-.2.2-.3s-.2-.1-.3-.1-.2 0-.3 0-.2.1-.3.1-.3.1-.4.2c.1-.1.3-.1.4-.1.3 0 .4-.1.5 0" fill="#9c9b9b"/></svg>