<?xml version="1.0" encoding="UTF-8" standalone="no"?>
<!DOCTYPE svg PUBLIC "-//W3C//DTD SVG 1.1//EN" "http://www.w3.org/Graphics/SVG/1.1/DTD/svg11.dtd">
<svg width="100%" height="100%" viewBox="0 0 1325 173" version="1.1" xmlns="http://www.w3.org/2000/svg" xmlns:xlink="http://www.w3.org/1999/xlink" xml:space="preserve" xmlns:serif="http://www.serif.com/" style="fill-rule:evenodd;clip-rule:evenodd;stroke-linejoin:round;stroke-miterlimit:2;">
    <g transform="matrix(1,0,0,1,-13.6632,-12.0383)">
        <g transform="matrix(1,0,0,1,-677.809,-15.6821)">
            <g transform="matrix(83.3333,0,0,83.3333,688.573,87.7204)">
                <path d="M0.05,-0.097C0.112,-0.022 0.189,0.02 0.299,0.02C0.424,0.02 0.521,-0.059 0.523,-0.184C0.523,-0.42 0.197,-0.384 0.197,-0.528C0.197,-0.581 0.236,-0.618 0.297,-0.618C0.354,-0.618 0.402,-0.585 0.443,-0.528L0.528,-0.604C0.472,-0.674 0.397,-0.72 0.296,-0.72C0.169,-0.72 0.08,-0.632 0.08,-0.525C0.08,-0.291 0.406,-0.326 0.406,-0.181C0.406,-0.122 0.366,-0.083 0.297,-0.083C0.236,-0.083 0.18,-0.116 0.134,-0.174L0.05,-0.097Z" style="fill-rule:nonzero;"/>
            </g>
            <g transform="matrix(83.3333,0,0,83.3333,737.573,87.7204)">
                <rect x="0.108" y="-0.7" width="0.114" height="0.7" style="fill-rule:nonzero;"/>
            </g>
            <g transform="matrix(83.3333,0,0,83.3333,765.073,87.7204)">
                <path d="M0.108,-0L0.222,-0L0.222,-0.544L0.406,-0.24L0.49,-0.24L0.673,-0.542L0.673,-0L0.788,-0L0.788,-0.7L0.643,-0.7L0.447,-0.372L0.253,-0.7L0.108,-0.7L0.108,-0Z" style="fill-rule:nonzero;"/>
            </g>
            <g transform="matrix(83.3333,0,0,83.3333,839.573,87.7204)">
                <path d="M0.526,-0.26C0.526,-0.15 0.463,-0.088 0.365,-0.088C0.265,-0.088 0.202,-0.15 0.202,-0.26L0.202,-0.7L0.088,-0.7L0.088,-0.268C0.088,-0.087 0.196,0.02 0.365,0.02C0.534,0.02 0.641,-0.087 0.641,-0.268L0.641,-0.7L0.526,-0.7L0.526,-0.26Z" style="fill-rule:nonzero;"/>
            </g>
            <g transform="matrix(83.3333,0,0,83.3333,900.239,87.7204)">
                <path d="M0.108,-0L0.498,-0L0.498,-0.105L0.222,-0.105L0.222,-0.7L0.108,-0.7L0.108,-0Z" style="fill-rule:nonzero;"/>
            </g>
            <g transform="matrix(83.3333,0,0,83.3333,946.489,87.7204)">
                <path d="M0.022,-0L0.144,-0L0.218,-0.196L0.523,-0.196L0.597,-0L0.72,-0L0.447,-0.7L0.295,-0.7L0.022,-0ZM0.256,-0.294L0.371,-0.596L0.485,-0.294L0.256,-0.294Z" style="fill-rule:nonzero;"/>
            </g>
            <g transform="matrix(83.3333,0,0,83.3333,1008.32,87.7204)">
                <path d="M0.108,-0L0.498,-0L0.498,-0.097L0.222,-0.097L0.222,-0.308L0.458,-0.308L0.458,-0.405L0.222,-0.405L0.222,-0.603L0.498,-0.603L0.498,-0.7L0.108,-0.7L0.108,-0Z" style="fill-rule:nonzero;"/>
            </g>
            <g transform="matrix(50,0,0,50,688.573,187.72)">
                <path d="M0.058,-0.096C0.119,-0.02 0.195,0.019 0.298,0.019C0.422,0.019 0.515,-0.058 0.515,-0.179C0.515,-0.412 0.184,-0.376 0.184,-0.533C0.184,-0.593 0.228,-0.636 0.297,-0.636C0.357,-0.636 0.406,-0.603 0.447,-0.544L0.518,-0.606C0.466,-0.675 0.394,-0.72 0.296,-0.72C0.174,-0.72 0.088,-0.635 0.088,-0.531C0.088,-0.3 0.42,-0.334 0.42,-0.176C0.42,-0.112 0.375,-0.065 0.297,-0.065C0.232,-0.065 0.176,-0.098 0.128,-0.16L0.058,-0.096Z" style="fill-rule:nonzero;"/>
            </g>
            <g transform="matrix(50,0,0,50,717.973,187.72)">
                <path d="M0.133,-0.635C0.166,-0.635 0.192,-0.662 0.192,-0.695C0.192,-0.727 0.166,-0.754 0.133,-0.754C0.1,-0.754 0.073,-0.727 0.073,-0.695C0.073,-0.662 0.1,-0.635 0.133,-0.635ZM0.09,-0L0.175,-0L0.175,-0.504L0.09,-0.504L0.09,-0Z" style="fill-rule:nonzero;"/>
            </g>
            <g transform="matrix(50,0,0,50,731.223,187.72)">
                <path d="M0.09,-0L0.175,-0L0.175,-0.349C0.204,-0.401 0.247,-0.444 0.316,-0.444C0.389,-0.444 0.435,-0.396 0.435,-0.312L0.435,-0L0.52,-0L0.52,-0.315C0.52,-0.327 0.519,-0.338 0.518,-0.349C0.551,-0.408 0.596,-0.444 0.66,-0.444C0.732,-0.444 0.779,-0.396 0.779,-0.312L0.779,-0L0.864,-0L0.864,-0.315C0.864,-0.452 0.785,-0.524 0.677,-0.524C0.59,-0.524 0.537,-0.482 0.497,-0.427C0.466,-0.491 0.406,-0.524 0.333,-0.524C0.263,-0.524 0.213,-0.493 0.175,-0.449L0.175,-0.504L0.09,-0.504L0.09,-0Z" style="fill-rule:nonzero;"/>
            </g>
            <g transform="matrix(50,0,0,50,778.473,187.72)">
                <path d="M0.441,-0.216C0.441,-0.117 0.387,-0.06 0.303,-0.06C0.217,-0.06 0.164,-0.117 0.164,-0.216L0.164,-0.504L0.079,-0.504L0.079,-0.219C0.079,-0.068 0.166,0.02 0.302,0.02C0.439,0.02 0.526,-0.068 0.526,-0.219L0.526,-0.504L0.441,-0.504L0.441,-0.216Z" style="fill-rule:nonzero;"/>
            </g>
            <g transform="matrix(50,0,0,50,808.673,187.72)">
                <rect x="0.09" y="-0.75" width="0.085" height="0.75" style="fill-rule:nonzero;"/>
            </g>
            <g transform="matrix(50,0,0,50,821.923,187.72)">
                <path d="M0.227,0.014C0.292,0.014 0.358,-0.015 0.396,-0.064L0.396,-0L0.481,-0L0.481,-0.338C0.481,-0.449 0.405,-0.524 0.277,-0.524C0.189,-0.524 0.118,-0.487 0.074,-0.427L0.138,-0.378C0.169,-0.421 0.216,-0.448 0.274,-0.448C0.346,-0.448 0.396,-0.408 0.396,-0.338L0.396,-0.303L0.226,-0.275C0.119,-0.257 0.061,-0.203 0.061,-0.127C0.061,-0.041 0.128,0.014 0.227,0.014ZM0.147,-0.13C0.147,-0.173 0.178,-0.204 0.247,-0.216L0.396,-0.241L0.396,-0.142C0.363,-0.088 0.308,-0.056 0.241,-0.056C0.182,-0.056 0.147,-0.087 0.147,-0.13Z" style="fill-rule:nonzero;"/>
            </g>
            <g transform="matrix(50,0,0,50,850.023,187.72)">
                <path d="M0.119,-0.169C0.119,-0.046 0.182,0.01 0.294,0.01C0.33,0.01 0.357,0.006 0.381,-0.004L0.381,-0.08C0.362,-0.072 0.339,-0.068 0.306,-0.068C0.245,-0.068 0.205,-0.09 0.205,-0.169L0.205,-0.427L0.38,-0.427L0.38,-0.504L0.205,-0.504L0.205,-0.63L0.119,-0.63L0.119,-0.504L0.024,-0.504L0.024,-0.427L0.119,-0.427L0.119,-0.169Z" style="fill-rule:nonzero;"/>
            </g>
            <g transform="matrix(50,0,0,50,870.523,187.72)">
                <path d="M0.538,-0.083L0.475,-0.132C0.442,-0.087 0.387,-0.057 0.322,-0.057C0.214,-0.057 0.137,-0.13 0.134,-0.251L0.521,-0.251C0.524,-0.265 0.527,-0.284 0.527,-0.304C0.527,-0.428 0.438,-0.524 0.301,-0.524C0.145,-0.524 0.047,-0.405 0.047,-0.252C0.047,-0.105 0.152,0.02 0.322,0.02C0.416,0.02 0.491,-0.02 0.538,-0.083ZM0.299,-0.452C0.388,-0.452 0.439,-0.39 0.442,-0.316L0.14,-0.316C0.158,-0.403 0.216,-0.452 0.299,-0.452Z" style="fill-rule:nonzero;"/>
            </g>
            <g transform="matrix(50,0,0,50,899.173,187.72)">
                <path d="M0.441,-0.216C0.441,-0.117 0.387,-0.06 0.303,-0.06C0.217,-0.06 0.164,-0.117 0.164,-0.216L0.164,-0.504L0.079,-0.504L0.079,-0.219C0.079,-0.068 0.166,0.02 0.302,0.02C0.439,0.02 0.526,-0.068 0.526,-0.219L0.526,-0.504L0.441,-0.504L0.441,-0.216Z" style="fill-rule:nonzero;"/>
            </g>
            <g transform="matrix(50,0,0,50,929.373,187.72)">
                <path d="M0.09,-0L0.175,-0L0.175,-0.346C0.206,-0.397 0.249,-0.431 0.315,-0.431C0.335,-0.431 0.35,-0.429 0.365,-0.425L0.365,-0.508C0.353,-0.512 0.338,-0.514 0.322,-0.514C0.258,-0.514 0.212,-0.485 0.175,-0.441L0.175,-0.504L0.09,-0.504L0.09,-0Z" style="fill-rule:nonzero;"/>
            </g>
            <g transform="matrix(50,0,0,50,962.723,187.72)">
                <path d="M0.047,-0.252C0.047,-0.105 0.148,0.02 0.306,0.02C0.381,0.02 0.44,-0.009 0.485,-0.06L0.485,-0L0.57,-0L0.57,-0.75L0.485,-0.75L0.485,-0.444C0.44,-0.495 0.381,-0.524 0.306,-0.524C0.148,-0.524 0.047,-0.399 0.047,-0.252ZM0.137,-0.252C0.137,-0.359 0.209,-0.444 0.316,-0.444C0.385,-0.444 0.446,-0.411 0.485,-0.351L0.485,-0.153C0.448,-0.094 0.386,-0.06 0.316,-0.06C0.209,-0.06 0.137,-0.145 0.137,-0.252Z" style="fill-rule:nonzero;"/>
            </g>
            <g transform="matrix(50,0,0,50,995.673,187.72)">
                <path d="M0.538,-0.083L0.475,-0.132C0.442,-0.087 0.387,-0.057 0.322,-0.057C0.214,-0.057 0.137,-0.13 0.134,-0.251L0.521,-0.251C0.524,-0.265 0.527,-0.284 0.527,-0.304C0.527,-0.428 0.438,-0.524 0.301,-0.524C0.145,-0.524 0.047,-0.405 0.047,-0.252C0.047,-0.105 0.152,0.02 0.322,0.02C0.416,0.02 0.491,-0.02 0.538,-0.083ZM0.299,-0.452C0.388,-0.452 0.439,-0.39 0.442,-0.316L0.14,-0.316C0.158,-0.403 0.216,-0.452 0.299,-0.452Z" style="fill-rule:nonzero;"/>
            </g>
            <g transform="matrix(50,0,0,50,1038.22,187.72)">
                <rect x="0.09" y="-0.75" width="0.085" height="0.75" style="fill-rule:nonzero;"/>
            </g>
            <g transform="matrix(50,0,0,50,1051.47,187.72)">
                <path d="M0.227,0.014C0.292,0.014 0.358,-0.015 0.396,-0.064L0.396,-0L0.481,-0L0.481,-0.338C0.481,-0.449 0.405,-0.524 0.277,-0.524C0.189,-0.524 0.118,-0.487 0.074,-0.427L0.138,-0.378C0.169,-0.421 0.216,-0.448 0.274,-0.448C0.346,-0.448 0.396,-0.408 0.396,-0.338L0.396,-0.303L0.226,-0.275C0.119,-0.257 0.061,-0.203 0.061,-0.127C0.061,-0.041 0.128,0.014 0.227,0.014ZM0.147,-0.13C0.147,-0.173 0.178,-0.204 0.247,-0.216L0.396,-0.241L0.396,-0.142C0.363,-0.088 0.308,-0.056 0.241,-0.056C0.182,-0.056 0.147,-0.087 0.147,-0.13Z" style="fill-rule:nonzero;"/>
            </g>
            <g transform="matrix(50,0,0,50,1093.07,187.72)">
                <path d="M0.09,-0L0.175,-0L0.175,-0.346C0.206,-0.397 0.249,-0.431 0.315,-0.431C0.335,-0.431 0.35,-0.429 0.365,-0.425L0.365,-0.508C0.353,-0.512 0.338,-0.514 0.322,-0.514C0.258,-0.514 0.212,-0.485 0.175,-0.441L0.175,-0.504L0.09,-0.504L0.09,-0Z" style="fill-rule:nonzero;"/>
            </g>
            <g transform="matrix(50,0,0,50,1111.42,187.72)">
                <path d="M0.346,-0.584L0.463,-0.75L0.367,-0.75L0.263,-0.584L0.346,-0.584ZM0.538,-0.083L0.475,-0.132C0.442,-0.087 0.387,-0.057 0.322,-0.057C0.214,-0.057 0.137,-0.13 0.134,-0.251L0.521,-0.251C0.524,-0.265 0.527,-0.284 0.527,-0.304C0.527,-0.428 0.438,-0.524 0.301,-0.524C0.145,-0.524 0.047,-0.405 0.047,-0.252C0.047,-0.105 0.152,0.02 0.322,0.02C0.416,0.02 0.491,-0.02 0.538,-0.083ZM0.299,-0.452C0.388,-0.452 0.439,-0.39 0.442,-0.316L0.14,-0.316C0.158,-0.403 0.216,-0.452 0.299,-0.452Z" style="fill-rule:nonzero;"/>
            </g>
            <g transform="matrix(50,0,0,50,1140.47,187.72)">
                <path d="M0.024,-0.504L0.024,-0.427L0.119,-0.427L0.119,-0L0.205,-0L0.205,-0.427L0.38,-0.427L0.38,-0.504L0.205,-0.504L0.205,-0.568C0.205,-0.634 0.243,-0.673 0.3,-0.673C0.329,-0.673 0.352,-0.664 0.371,-0.65L0.409,-0.721C0.381,-0.737 0.344,-0.75 0.298,-0.75C0.188,-0.75 0.119,-0.673 0.119,-0.566L0.119,-0.504L0.024,-0.504Z" style="fill-rule:nonzero;"/>
            </g>
            <g transform="matrix(50,0,0,50,1158.77,187.72)">
                <path d="M0.32,-0.524C0.157,-0.524 0.047,-0.399 0.047,-0.252C0.047,-0.105 0.157,0.02 0.32,0.02C0.482,0.02 0.593,-0.105 0.593,-0.252C0.593,-0.399 0.482,-0.524 0.32,-0.524ZM0.321,-0.06C0.213,-0.06 0.136,-0.147 0.136,-0.252C0.136,-0.357 0.213,-0.444 0.321,-0.444C0.426,-0.444 0.503,-0.357 0.503,-0.252C0.503,-0.148 0.426,-0.06 0.321,-0.06Z" style="fill-rule:nonzero;"/>
            </g>
            <g transform="matrix(50,0,0,50,1190.77,187.72)">
                <path d="M0.09,-0L0.175,-0L0.175,-0.346C0.206,-0.397 0.249,-0.431 0.315,-0.431C0.335,-0.431 0.35,-0.429 0.365,-0.425L0.365,-0.508C0.353,-0.512 0.338,-0.514 0.322,-0.514C0.258,-0.514 0.212,-0.485 0.175,-0.441L0.175,-0.504L0.09,-0.504L0.09,-0Z" style="fill-rule:nonzero;"/>
            </g>
            <g transform="matrix(50,0,0,50,1210.62,187.72)">
                <path d="M0.09,-0L0.175,-0L0.175,-0.349C0.204,-0.401 0.247,-0.444 0.316,-0.444C0.389,-0.444 0.435,-0.396 0.435,-0.312L0.435,-0L0.52,-0L0.52,-0.315C0.52,-0.327 0.519,-0.338 0.518,-0.349C0.551,-0.408 0.596,-0.444 0.66,-0.444C0.732,-0.444 0.779,-0.396 0.779,-0.312L0.779,-0L0.864,-0L0.864,-0.315C0.864,-0.452 0.785,-0.524 0.677,-0.524C0.59,-0.524 0.537,-0.482 0.497,-0.427C0.466,-0.491 0.406,-0.524 0.333,-0.524C0.263,-0.524 0.213,-0.493 0.175,-0.449L0.175,-0.504L0.09,-0.504L0.09,-0Z" style="fill-rule:nonzero;"/>
            </g>
            <g transform="matrix(50,0,0,50,1257.87,187.72)">
                <path d="M0.538,-0.083L0.475,-0.132C0.442,-0.087 0.387,-0.057 0.322,-0.057C0.214,-0.057 0.137,-0.13 0.134,-0.251L0.521,-0.251C0.524,-0.265 0.527,-0.284 0.527,-0.304C0.527,-0.428 0.438,-0.524 0.301,-0.524C0.145,-0.524 0.047,-0.405 0.047,-0.252C0.047,-0.105 0.152,0.02 0.322,0.02C0.416,0.02 0.491,-0.02 0.538,-0.083ZM0.299,-0.452C0.388,-0.452 0.439,-0.39 0.442,-0.316L0.14,-0.316C0.158,-0.403 0.216,-0.452 0.299,-0.452Z" style="fill-rule:nonzero;"/>
            </g>
            <g transform="matrix(50,0,0,50,1300.42,187.72)">
                <path d="M0.047,-0.252C0.047,-0.105 0.148,0.02 0.306,0.02C0.381,0.02 0.44,-0.009 0.485,-0.06L0.485,-0L0.57,-0L0.57,-0.75L0.485,-0.75L0.485,-0.444C0.44,-0.495 0.381,-0.524 0.306,-0.524C0.148,-0.524 0.047,-0.399 0.047,-0.252ZM0.137,-0.252C0.137,-0.359 0.209,-0.444 0.316,-0.444C0.385,-0.444 0.446,-0.411 0.485,-0.351L0.485,-0.153C0.448,-0.094 0.386,-0.06 0.316,-0.06C0.209,-0.06 0.137,-0.145 0.137,-0.252Z" style="fill-rule:nonzero;"/>
            </g>
            <g transform="matrix(50,0,0,50,1333.37,187.72)">
                <path d="M0.538,-0.083L0.475,-0.132C0.442,-0.087 0.387,-0.057 0.322,-0.057C0.214,-0.057 0.137,-0.13 0.134,-0.251L0.521,-0.251C0.524,-0.265 0.527,-0.284 0.527,-0.304C0.527,-0.428 0.438,-0.524 0.301,-0.524C0.145,-0.524 0.047,-0.405 0.047,-0.252C0.047,-0.105 0.152,0.02 0.322,0.02C0.416,0.02 0.491,-0.02 0.538,-0.083ZM0.299,-0.452C0.388,-0.452 0.439,-0.39 0.442,-0.316L0.14,-0.316C0.158,-0.403 0.216,-0.452 0.299,-0.452Z" style="fill-rule:nonzero;"/>
            </g>
            <g transform="matrix(50,0,0,50,1375.92,187.72)">
                <rect x="0.09" y="-0.75" width="0.085" height="0.75" style="fill-rule:nonzero;"/>
            </g>
            <g transform="matrix(50,0,0,50,1389.17,187.72)">
                <path d="M0.227,0.014C0.292,0.014 0.358,-0.015 0.396,-0.064L0.396,-0L0.481,-0L0.481,-0.338C0.481,-0.449 0.405,-0.524 0.277,-0.524C0.189,-0.524 0.118,-0.487 0.074,-0.427L0.138,-0.378C0.169,-0.421 0.216,-0.448 0.274,-0.448C0.346,-0.448 0.396,-0.408 0.396,-0.338L0.396,-0.303L0.226,-0.275C0.119,-0.257 0.061,-0.203 0.061,-0.127C0.061,-0.041 0.128,0.014 0.227,0.014ZM0.147,-0.13C0.147,-0.173 0.178,-0.204 0.247,-0.216L0.396,-0.241L0.396,-0.142C0.363,-0.088 0.308,-0.056 0.241,-0.056C0.182,-0.056 0.147,-0.087 0.147,-0.13Z" style="fill-rule:nonzero;"/>
            </g>
            <g transform="matrix(50,0,0,50,1430.77,187.72)">
                <path d="M0.09,-0L0.175,-0L0.175,-0.349C0.207,-0.401 0.252,-0.444 0.326,-0.444C0.405,-0.444 0.455,-0.392 0.455,-0.302L0.455,-0L0.54,-0L0.54,-0.305C0.54,-0.448 0.456,-0.524 0.343,-0.524C0.268,-0.524 0.216,-0.492 0.175,-0.447L0.175,-0.75L0.09,-0.75L0.09,-0Z" style="fill-rule:nonzero;"/>
            </g>
            <g transform="matrix(50,0,0,50,1461.82,187.72)">
                <path d="M0.227,0.014C0.292,0.014 0.358,-0.015 0.396,-0.064L0.396,-0L0.481,-0L0.481,-0.338C0.481,-0.449 0.405,-0.524 0.277,-0.524C0.189,-0.524 0.118,-0.487 0.074,-0.427L0.138,-0.378C0.169,-0.421 0.216,-0.448 0.274,-0.448C0.346,-0.448 0.396,-0.408 0.396,-0.338L0.396,-0.303L0.226,-0.275C0.119,-0.257 0.061,-0.203 0.061,-0.127C0.061,-0.041 0.128,0.014 0.227,0.014ZM0.147,-0.13C0.147,-0.173 0.178,-0.204 0.247,-0.216L0.396,-0.241L0.396,-0.142C0.363,-0.088 0.308,-0.056 0.241,-0.056C0.182,-0.056 0.147,-0.087 0.147,-0.13Z" style="fill-rule:nonzero;"/>
            </g>
            <g transform="matrix(50,0,0,50,1489.92,187.72)">
                <path d="M0.441,-0.216C0.441,-0.117 0.387,-0.06 0.303,-0.06C0.217,-0.06 0.164,-0.117 0.164,-0.216L0.164,-0.504L0.079,-0.504L0.079,-0.219C0.079,-0.068 0.166,0.02 0.302,0.02C0.439,0.02 0.526,-0.068 0.526,-0.219L0.526,-0.504L0.441,-0.504L0.441,-0.216Z" style="fill-rule:nonzero;"/>
            </g>
            <g transform="matrix(50,0,0,50,1520.32,187.72)">
                <path d="M0.119,-0.169C0.119,-0.046 0.182,0.01 0.294,0.01C0.33,0.01 0.357,0.006 0.381,-0.004L0.381,-0.08C0.362,-0.072 0.339,-0.068 0.306,-0.068C0.245,-0.068 0.205,-0.09 0.205,-0.169L0.205,-0.427L0.38,-0.427L0.38,-0.504L0.205,-0.504L0.205,-0.63L0.119,-0.63L0.119,-0.504L0.024,-0.504L0.024,-0.427L0.119,-0.427L0.119,-0.169Z" style="fill-rule:nonzero;"/>
            </g>
            <g transform="matrix(50,0,0,50,1540.82,187.72)">
                <path d="M0.538,-0.083L0.475,-0.132C0.442,-0.087 0.387,-0.057 0.322,-0.057C0.214,-0.057 0.137,-0.13 0.134,-0.251L0.521,-0.251C0.524,-0.265 0.527,-0.284 0.527,-0.304C0.527,-0.428 0.438,-0.524 0.301,-0.524C0.145,-0.524 0.047,-0.405 0.047,-0.252C0.047,-0.105 0.152,0.02 0.322,0.02C0.416,0.02 0.491,-0.02 0.538,-0.083ZM0.299,-0.452C0.388,-0.452 0.439,-0.39 0.442,-0.316L0.14,-0.316C0.158,-0.403 0.216,-0.452 0.299,-0.452Z" style="fill-rule:nonzero;"/>
            </g>
            <g transform="matrix(50,0,0,50,1583.37,187.72)">
                <path d="M0.024,-0.504L0.024,-0.427L0.119,-0.427L0.119,-0L0.205,-0L0.205,-0.427L0.38,-0.427L0.38,-0.504L0.205,-0.504L0.205,-0.568C0.205,-0.634 0.243,-0.673 0.3,-0.673C0.329,-0.673 0.352,-0.664 0.371,-0.65L0.409,-0.721C0.381,-0.737 0.344,-0.75 0.298,-0.75C0.188,-0.75 0.119,-0.673 0.119,-0.566L0.119,-0.504L0.024,-0.504Z" style="fill-rule:nonzero;"/>
            </g>
            <g transform="matrix(50,0,0,50,1601.67,187.72)">
                <path d="M0.32,-0.524C0.157,-0.524 0.047,-0.399 0.047,-0.252C0.047,-0.105 0.157,0.02 0.32,0.02C0.482,0.02 0.593,-0.105 0.593,-0.252C0.593,-0.399 0.482,-0.524 0.32,-0.524ZM0.321,-0.06C0.213,-0.06 0.136,-0.147 0.136,-0.252C0.136,-0.357 0.213,-0.444 0.321,-0.444C0.426,-0.444 0.503,-0.357 0.503,-0.252C0.503,-0.148 0.426,-0.06 0.321,-0.06Z" style="fill-rule:nonzero;"/>
            </g>
            <g transform="matrix(50,0,0,50,1633.67,187.72)">
                <path d="M0.09,-0L0.175,-0L0.175,-0.349C0.207,-0.402 0.253,-0.444 0.326,-0.444C0.404,-0.444 0.455,-0.392 0.455,-0.302L0.455,-0L0.54,-0L0.54,-0.305C0.54,-0.448 0.456,-0.524 0.343,-0.524C0.268,-0.524 0.216,-0.492 0.175,-0.447L0.175,-0.504L0.09,-0.504L0.09,-0Z" style="fill-rule:nonzero;"/>
            </g>
            <g transform="matrix(50,0,0,50,1664.72,187.72)">
                <path d="M0.322,-0.06C0.213,-0.06 0.136,-0.144 0.136,-0.252C0.136,-0.359 0.213,-0.444 0.321,-0.444C0.384,-0.444 0.435,-0.414 0.466,-0.37L0.533,-0.421C0.486,-0.483 0.412,-0.524 0.321,-0.524C0.154,-0.524 0.047,-0.399 0.047,-0.252C0.047,-0.105 0.154,0.02 0.321,0.02C0.413,0.02 0.486,-0.02 0.533,-0.083L0.466,-0.134C0.435,-0.09 0.384,-0.06 0.322,-0.06Z" style="fill-rule:nonzero;"/>
            </g>
            <g transform="matrix(50,0,0,50,1692.62,187.72)">
                <path d="M0.119,-0.169C0.119,-0.046 0.182,0.01 0.294,0.01C0.33,0.01 0.357,0.006 0.381,-0.004L0.381,-0.08C0.362,-0.072 0.339,-0.068 0.306,-0.068C0.245,-0.068 0.205,-0.09 0.205,-0.169L0.205,-0.427L0.38,-0.427L0.38,-0.504L0.205,-0.504L0.205,-0.63L0.119,-0.63L0.119,-0.504L0.024,-0.504L0.024,-0.427L0.119,-0.427L0.119,-0.169Z" style="fill-rule:nonzero;"/>
            </g>
            <g transform="matrix(50,0,0,50,1713.62,187.72)">
                <path d="M0.133,-0.635C0.166,-0.635 0.192,-0.662 0.192,-0.695C0.192,-0.727 0.166,-0.754 0.133,-0.754C0.1,-0.754 0.073,-0.727 0.073,-0.695C0.073,-0.662 0.1,-0.635 0.133,-0.635ZM0.09,-0L0.175,-0L0.175,-0.504L0.09,-0.504L0.09,-0Z" style="fill-rule:nonzero;"/>
            </g>
            <g transform="matrix(50,0,0,50,1726.87,187.72)">
                <path d="M0.32,-0.524C0.157,-0.524 0.047,-0.399 0.047,-0.252C0.047,-0.105 0.157,0.02 0.32,0.02C0.482,0.02 0.593,-0.105 0.593,-0.252C0.593,-0.399 0.482,-0.524 0.32,-0.524ZM0.321,-0.06C0.213,-0.06 0.136,-0.147 0.136,-0.252C0.136,-0.357 0.213,-0.444 0.321,-0.444C0.426,-0.444 0.503,-0.357 0.503,-0.252C0.503,-0.148 0.426,-0.06 0.321,-0.06Z" style="fill-rule:nonzero;"/>
            </g>
            <g transform="matrix(50,0,0,50,1758.87,187.72)">
                <path d="M0.09,-0L0.175,-0L0.175,-0.349C0.207,-0.402 0.253,-0.444 0.326,-0.444C0.404,-0.444 0.455,-0.392 0.455,-0.302L0.455,-0L0.54,-0L0.54,-0.305C0.54,-0.448 0.456,-0.524 0.343,-0.524C0.268,-0.524 0.216,-0.492 0.175,-0.447L0.175,-0.504L0.09,-0.504L0.09,-0Z" style="fill-rule:nonzero;"/>
            </g>
            <g transform="matrix(50,0,0,50,1803.42,187.72)">
                <path d="M0.09,0.246L0.175,0.246L0.175,-0.06C0.22,-0.009 0.279,0.02 0.354,0.02C0.512,0.02 0.613,-0.105 0.613,-0.252C0.613,-0.399 0.512,-0.524 0.354,-0.524C0.279,-0.524 0.22,-0.495 0.175,-0.444L0.175,-0.504L0.09,-0.504L0.09,0.246ZM0.344,-0.444C0.451,-0.444 0.524,-0.359 0.524,-0.252C0.524,-0.145 0.451,-0.06 0.344,-0.06C0.275,-0.06 0.214,-0.093 0.175,-0.154L0.175,-0.35C0.213,-0.41 0.274,-0.444 0.344,-0.444Z" style="fill-rule:nonzero;"/>
            </g>
            <g transform="matrix(50,0,0,50,1836.42,187.72)">
                <path d="M0.441,-0.216C0.441,-0.117 0.387,-0.06 0.303,-0.06C0.217,-0.06 0.164,-0.117 0.164,-0.216L0.164,-0.504L0.079,-0.504L0.079,-0.219C0.079,-0.068 0.166,0.02 0.302,0.02C0.439,0.02 0.526,-0.068 0.526,-0.219L0.526,-0.504L0.441,-0.504L0.441,-0.216Z" style="fill-rule:nonzero;"/>
            </g>
            <g transform="matrix(50,0,0,50,1866.62,187.72)">
                <path d="M0.613,-0.252C0.613,-0.399 0.512,-0.524 0.354,-0.524C0.279,-0.524 0.22,-0.495 0.175,-0.444L0.175,-0.75L0.09,-0.75L0.09,-0L0.175,-0L0.175,-0.06C0.22,-0.009 0.279,0.02 0.354,0.02C0.512,0.02 0.613,-0.105 0.613,-0.252ZM0.344,-0.444C0.451,-0.444 0.524,-0.359 0.524,-0.252C0.524,-0.145 0.451,-0.06 0.344,-0.06C0.275,-0.06 0.214,-0.093 0.175,-0.153L0.175,-0.351C0.212,-0.41 0.274,-0.444 0.344,-0.444Z" style="fill-rule:nonzero;"/>
            </g>
            <g transform="matrix(50,0,0,50,1899.67,187.72)">
                <rect x="0.09" y="-0.75" width="0.085" height="0.75" style="fill-rule:nonzero;"/>
            </g>
            <g transform="matrix(50,0,0,50,1912.92,187.72)">
                <path d="M0.133,-0.635C0.166,-0.635 0.192,-0.662 0.192,-0.695C0.192,-0.727 0.166,-0.754 0.133,-0.754C0.1,-0.754 0.073,-0.727 0.073,-0.695C0.073,-0.662 0.1,-0.635 0.133,-0.635ZM0.09,-0L0.175,-0L0.175,-0.504L0.09,-0.504L0.09,-0Z" style="fill-rule:nonzero;"/>
            </g>
            <g transform="matrix(50,0,0,50,1926.17,187.72)">
                <path d="M0.047,-0.252C0.047,-0.105 0.148,0.02 0.306,0.02C0.381,0.02 0.44,-0.009 0.485,-0.061L0.485,0.246L0.57,0.246L0.57,-0.504L0.485,-0.504L0.485,-0.443C0.44,-0.495 0.381,-0.524 0.306,-0.524C0.148,-0.524 0.047,-0.399 0.047,-0.252ZM0.136,-0.252C0.136,-0.359 0.209,-0.444 0.315,-0.444C0.385,-0.444 0.446,-0.411 0.485,-0.35L0.485,-0.154C0.447,-0.094 0.386,-0.06 0.315,-0.06C0.209,-0.06 0.136,-0.145 0.136,-0.252Z" style="fill-rule:nonzero;"/>
            </g>
            <g transform="matrix(50,0,0,50,1959.17,187.72)">
                <path d="M0.441,-0.216C0.441,-0.117 0.387,-0.06 0.303,-0.06C0.217,-0.06 0.164,-0.117 0.164,-0.216L0.164,-0.504L0.079,-0.504L0.079,-0.219C0.079,-0.068 0.166,0.02 0.302,0.02C0.439,0.02 0.526,-0.068 0.526,-0.219L0.526,-0.504L0.441,-0.504L0.441,-0.216Z" style="fill-rule:nonzero;"/>
            </g>
            <g transform="matrix(50,0,0,50,1989.37,187.72)">
                <path d="M0.538,-0.083L0.475,-0.132C0.442,-0.087 0.387,-0.057 0.322,-0.057C0.214,-0.057 0.137,-0.13 0.134,-0.251L0.521,-0.251C0.524,-0.265 0.527,-0.284 0.527,-0.304C0.527,-0.428 0.438,-0.524 0.301,-0.524C0.145,-0.524 0.047,-0.405 0.047,-0.252C0.047,-0.105 0.152,0.02 0.322,0.02C0.416,0.02 0.491,-0.02 0.538,-0.083ZM0.299,-0.452C0.388,-0.452 0.439,-0.39 0.442,-0.316L0.14,-0.316C0.158,-0.403 0.216,-0.452 0.299,-0.452Z" style="fill-rule:nonzero;"/>
            </g>
        </g>
    </g>
</svg>
